<?xml version="1.0" encoding="UTF-8"?>
<!DOCTYPE svg PUBLIC "-//W3C//DTD SVG 1.1//EN" "http://www.w3.org/Graphics/SVG/1.1/DTD/svg11.dtd">
<!-- Creator: CorelDRAW X6 -->
<svg xmlns="http://www.w3.org/2000/svg" xml:space="preserve" width="5.82677in" height="4.13386in" version="1.1" style="shape-rendering:geometricPrecision; text-rendering:geometricPrecision; image-rendering:optimizeQuality; fill-rule:evenodd; clip-rule:evenodd"
viewBox="0 0 5827 4134"
 xmlns:xlink="http://www.w3.org/1999/xlink">
 <defs>
  <style type="text/css">
   <![CDATA[
    .fil0 {fill:none}
    .fil4 {fill:#757475}
    .fil1 {fill:#757475;fill-rule:nonzero}
    .fil3 {fill:#9C272B;fill-rule:nonzero}
    .fil5 {fill:url(#id0)}
    .fil6 {fill:url(#id1)}
    .fil2 {fill:url(#id2);fill-rule:nonzero}
   ]]>
  </style>
  <linearGradient id="id0" gradientUnits="userSpaceOnUse" x1="399.398" y1="1981.94" x2="3129.48" y2="878.917">
   <stop offset="0" style="stop-color:#882729"/>
   <stop offset="0.188235" style="stop-color:#E72B2B"/>
   <stop offset="0.329412" style="stop-color:#EE7B57"/>
   <stop offset="0.368627" style="stop-color:#F08D68"/>
   <stop offset="0.419608" style="stop-color:#EE7B57"/>
   <stop offset="0.529412" style="stop-color:#E6272A"/>
   <stop offset="1" style="stop-color:#882729"/>
  </linearGradient>
  <linearGradient id="id1" gradientUnits="userSpaceOnUse" x1="698.165" y1="2117.67" x2="3074.65" y2="1157.5">
   <stop offset="0" style="stop-color:#757475"/>
   <stop offset="0.270588" style="stop-color:#DCDDDD"/>
   <stop offset="0.411765" style="stop-color:#FEFEFE"/>
   <stop offset="0.65098" style="stop-color:#CBCBCC"/>
   <stop offset="1" style="stop-color:#757475"/>
  </linearGradient>
  <radialGradient id="id2" gradientUnits="userSpaceOnUse" cx="1706.81" cy="2416.45" r="1081.87" fx="1706.81" fy="2416.45">
   <stop offset="0" style="stop-color:#E62129"/>
   <stop offset="0.180392" style="stop-color:#E62129"/>
   <stop offset="0.760784" style="stop-color:#7A2629"/>
   <stop offset="1" style="stop-color:#772628"/>
  </radialGradient>
 </defs>
 <g id="Layer_x0020_1">
  <metadata id="CorelCorpID_0Corel-Layer"/>
  <g id="_301498704">
   <polygon class="fil0" points="0,0 5827,0 5827,4134 0,4134 "/>
   <g>
    <path class="fil1" d="M3430 1826c-81,0 -136,65 -136,165 0,95 52,161 132,161 77,0 136,-56 136,-165 0,-91 -48,-160 -132,-160zm-2 39c57,0 83,62 83,122 0,67 -28,125 -84,125 -54,0 -83,-59 -83,-123 0,-62 26,-124 84,-124zm370 -35l-218 0 0 41 85 0 0 275 48 0 0 -275 85 0 0 -41zm155 -5c-81,0 -136,65 -136,165 0,95 52,161 132,161 77,0 136,-56 136,-165 0,-91 -48,-160 -132,-160zm-2 39c57,0 83,62 83,122 0,67 -28,125 -84,125 -54,0 -83,-59 -83,-123 0,-62 26,-124 84,-124zm318 130c32,-12 57,-40 57,-80 0,-26 -9,-47 -25,-62 -20,-18 -49,-25 -90,-25 -28,0 -57,3 -77,7l0 312 47 0 0 -134 29 0c33,0 49,16 57,58 8,39 15,66 20,76l50 0c-6,-12 -14,-45 -24,-86 -7,-33 -21,-56 -44,-64l0 -1zm-88 -19l0 -109c6,-2 17,-3 33,-3 34,0 63,14 63,55 0,34 -25,57 -64,57l-32 0zm198 170l48 0 0 -316 -48 0 0 316zm301 -316l-218 0 0 41 85 0 0 275 48 0 0 -275 85 0 0 -41zm160 0l-59 0 -97 316 49 0 27 -93 97 0 28 93 50 0 -97 -316zm-71 186l25 -83c5,-20 10,-43 15,-62l1 0c5,19 10,42 16,63l25 83 -81 0zm371 -177c-14,-7 -36,-14 -66,-14 -63,0 -103,38 -103,87 0,43 32,71 79,90 38,16 54,32 54,59 0,28 -21,48 -59,48 -26,0 -52,-8 -68,-19l-11 40c15,10 47,19 76,19 71,0 110,-40 110,-92 0,-43 -24,-71 -75,-93 -40,-17 -58,-31 -58,-57 0,-20 16,-42 53,-42 26,0 46,8 56,14l12 -40zm-1725 397l-48 0 0 210c0,56 -19,70 -51,70 -13,0 -24,-2 -31,-5l-6 40c10,4 27,6 41,6 55,0 95,-26 95,-109l0 -211zm195 0l-59 0 -97 316 49 0 27 -93 97 0 28 93 50 0 -97 -316zm-71 186l25 -83c5,-20 10,-43 15,-62l1 0c5,19 10,42 16,63l25 83 -81 0zm371 -177c-14,-7 -36,-14 -66,-14 -63,0 -103,38 -103,87 0,43 32,71 79,90 38,16 54,32 54,59 0,28 -21,48 -59,48 -26,0 -52,-8 -68,-19l-11 40c15,10 47,19 76,19 71,0 110,-40 110,-92 0,-43 -24,-71 -75,-93 -40,-17 -58,-31 -58,-57 0,-20 16,-42 53,-42 26,0 46,8 56,14l12 -40zm196 -10l-59 0 -97 316 49 0 27 -93 97 0 28 93 50 0 -97 -316zm-71 186l25 -83c5,-20 10,-43 15,-62l1 0c5,19 10,42 16,63l25 83 -81 0zm-616 355l104 -135 -58 0 -81 113c-7,11 -15,23 -23,35l-1 0 0 -148 -47 0 0 316 47 0 0 -116 26 -33 87 149 56 0 -110 -181zm313 141l-124 0 0 -105 111 0 0 -40 -111 0 0 -92 117 0 0 -40 -165 0 0 316 172 0 0 -40zm271 -276l-48 0 0 191c0,63 -25,90 -64,90 -36,0 -62,-27 -62,-90l0 -191 -48 0 0 188c0,94 44,132 109,132 67,0 114,-40 114,-133l0 -187zm198 0l-59 0 -97 316 49 0 27 -93 97 0 28 93 50 0 -97 -316zm-71 186l25 -83c5,-20 10,-43 15,-62l1 0c5,19 10,42 16,63l25 83 -81 0zm438 -186l-44 0 0 116c0,50 1,91 5,134l-1 0c-14,-33 -31,-70 -51,-105l-83 -146 -52 0 0 316 44 0 0 -118c0,-55 -1,-96 -3,-136l2 0c14,36 33,73 52,107l83 148 48 0 0 -316zm293 146l-101 0 0 38 54 0 0 89c-7,4 -21,7 -42,7 -62,0 -105,-42 -105,-122 0,-80 47,-121 111,-121 29,0 48,5 63,12l11 -39c-16,-8 -43,-13 -73,-13 -94,0 -162,61 -162,163 0,50 17,159 154,159 38,0 72,-9 90,-16l0 -157zm190 -146l-59 0 -97 316 49 0 27 -93 97 0 28 93 50 0 -97 -316zm-71 186l25 -83c5,-20 10,-43 15,-62l1 0c5,19 10,42 16,63l25 83 -81 0zm438 -186l-44 0 0 116c0,50 1,91 5,134l-1 0c-14,-33 -31,-70 -51,-105l-83 -146 -52 0 0 316 44 0 0 -118c0,-55 -1,-96 -3,-136l2 0c14,36 33,73 52,107l83 148 48 0 0 -316z"/>
    <path class="fil2" d="M1101 1824c-335,0 -529,275 -529,607 0,323 168,603 511,603 92,0 175,-18 247,-54 55,22 132,50 204,54 222,13 389,-89 389,-418l0 -796 -237 0 0 799c0,167 -57,201 -148,201 -10,0 -19,-2 -29,-5 63,-100 99,-235 99,-403 0,-286 -145,-589 -508,-589zm1253 456l403 -468 -342 -27 -418 502 0 369 163 -167 318 542 363 -2 -487 -749zm-1262 -250c190,0 285,177 285,388 0,236 -97,403 -285,403 -188,0 -293,-166 -291,-398 0,-208 93,-393 291,-393z"/>
    <polygon class="fil3" points="3087,3073 3040,3073 3040,1796 3087,1796 "/>
    <path class="fil4" d="M653 1668c58,105 100,227 113,378 535,-558 1072,-367 1613,-243 449,73 672,-105 749,-205 -273,148 -480,153 -656,92 -223,-7 -591,-307 -1092,-361 -478,-51 -713,317 -727,338z"/>
    <path class="fil5" d="M412 1330c176,174 328,361 357,682 535,-558 1059,-348 1600,-224 449,73 672,-105 749,-205 -695,378 -958,-184 -1394,-383 -92,-51 -736,-352 -1311,129z"/>
    <path class="fil6" d="M656 1634c58,105 100,227 113,378 535,-558 1059,-348 1600,-224 449,73 672,-105 749,-205 -273,148 -480,153 -656,92 -223,-7 -591,-307 -1092,-361 -478,-51 -700,298 -713,320z"/>
   </g>
  </g>
 </g>
</svg>
